<svg width="235" height="33" viewBox="0 0 235 33" fill="none" xmlns="http://www.w3.org/2000/svg">
<path d="M27.8663 29.3417H33.0848V27.1233H27.8663V26.2359H34.2723V23.8501H24.7051V32.7154H34.4061V30.3296H27.8663V29.3417Z" fill="#A09584"/>
<path d="M44.2084 23.8502H38.0449V32.7071H41.273V30.2961H44.2168C46.9097 30.2961 48.4568 29.1158 48.4568 27.0648C48.4568 25.0222 46.9097 23.8418 44.2168 23.8418L44.2084 23.8502ZM45.1869 27.1401C45.1869 27.768 44.7855 28.0693 43.9576 28.0693H41.2647V26.2193H43.9576C44.7939 26.2193 45.1869 26.5123 45.1869 27.1401Z" fill="#A09584"/>
<path d="M55.0537 23.8501H51.834V32.7154H55.0537V23.8501Z" fill="#A09584"/>
<path d="M66.7037 29.2246C66.1851 30.0282 65.4157 30.4217 64.362 30.4217C62.8399 30.4217 61.9033 29.6013 61.9033 28.2786C61.9033 27.6173 62.1375 27.0731 62.5723 26.6964C63.0072 26.3281 63.6261 26.1355 64.362 26.1355C65.3823 26.1355 66.1601 26.529 66.6535 27.3075L66.7037 27.3912L69.3798 25.9932L69.3213 25.8927C68.485 24.4696 66.5531 23.5571 64.3871 23.5571C62.6727 23.5571 61.2343 23.9757 60.2223 24.7794C59.177 25.6081 58.625 26.8136 58.625 28.2786C58.625 31.1835 60.791 32.9917 64.27 32.9917C66.5448 32.9917 68.485 32.0876 69.3464 30.6393L69.4049 30.5472L66.7371 29.1408L66.6869 29.2246H66.7037Z" fill="#A09584"/>
<path d="M81.213 23.8502L76.8057 32.5564L76.7305 32.7071H80.1091L80.8116 31.2086H84.9931L85.6956 32.7071H89.1077L84.6168 23.8418H81.213V23.8502ZM83.9728 29.0488H81.8152L82.894 26.7383L83.9728 29.0488Z" fill="#A09584"/>
<path d="M97.2038 23.8501H92.0605V32.7154H97.2038C100.666 32.7154 102.815 31.016 102.815 28.2869C102.815 25.5579 100.666 23.8585 97.2038 23.8585V23.8501ZM95.2887 26.3615H96.9613C98.6004 26.3615 99.5371 27.0647 99.5371 28.2786C99.5371 29.4924 98.6004 30.1956 96.9613 30.1956H95.2887V26.3531V26.3615Z" fill="#A09584"/>
<path d="M110.693 29.5092L108.31 23.9171L108.285 23.8501H104.822L109.004 32.6568L109.037 32.7154H112.316L116.455 24.0008L116.53 23.8501H113.11L110.693 29.5092Z" fill="#A09584"/>
<path d="M122.644 29.3417H127.863V27.1233H122.644V26.2359H129.05V23.8501H119.475V32.7154H129.184V30.3296H122.644V29.3417Z" fill="#A09584"/>
<path d="M140.448 23.8501V28.3874L136.174 23.8836L136.149 23.8501H132.812V32.7154H135.924V27.6926L140.757 32.6819L140.782 32.7154H143.576V23.8501H140.448Z" fill="#A09584"/>
<path d="M146.896 26.3531H150.3V32.7154H153.528V26.3531H156.949V23.8501H146.896V26.3531Z" fill="#A09584"/>
<path d="M167.435 23.8501V28.2953C167.435 29.0822 167.168 30.3965 165.395 30.3965C163.622 30.3965 163.337 29.0738 163.337 28.2953V23.8501H160.109V28.5297C160.109 31.3257 162.083 33 165.386 33C168.69 33 170.655 31.3257 170.655 28.5297V23.8501H167.427H167.435Z" fill="#A09584"/>
<path d="M185.032 27.0145C185.032 25.064 183.409 23.8585 180.792 23.8585H174.553V32.7238H177.756V30.1789H179.621L181.72 32.7238H185.433L182.949 29.8357C184.296 29.3334 185.032 28.3372 185.032 27.0229V27.0145ZM181.77 27.0899C181.77 27.6842 181.394 27.9438 180.541 27.9438H177.747V26.2276H180.541C181.385 26.2276 181.77 26.4955 181.77 27.0815V27.0899Z" fill="#A09584"/>
<path d="M191.872 30.3296V29.3417H197.091V27.1233H191.872V26.2359H198.278V23.8501H188.711V32.7154H198.412V30.3296H191.872Z" fill="#A09584"/>
<path d="M207.035 26.8639C205.781 26.7634 204.961 26.6713 204.961 26.3532C204.961 26.0602 205.63 25.8761 206.743 25.8761C208.097 25.8761 209.201 26.1691 210.105 26.7634L210.188 26.8136L211.752 24.8966L211.652 24.8296C210.439 24.026 208.649 23.5656 206.743 23.5656C203.724 23.5656 201.775 24.7543 201.775 26.596C201.775 28.7893 204.501 29.3083 206.885 29.5176C208.415 29.6515 208.884 29.7855 208.884 30.112C208.884 30.4636 208.298 30.6477 207.152 30.6477C205.597 30.6477 204.108 30.2041 203.071 29.4255L202.996 29.3669L201.365 31.2589L201.457 31.3258C202.879 32.3974 204.894 32.9917 207.111 32.9917C211.593 32.9917 212.078 30.7649 212.078 29.8106C212.078 27.701 210.063 27.1066 207.044 26.8639H207.035Z" fill="#A09584"/>
<path d="M235 4.95591V0.16748H220.365C218.575 0.16748 217.496 0.351651 216.643 0.812077C215.196 1.59062 214.469 3.07235 214.469 5.2238V12.5488C214.469 14.7002 215.205 16.1819 216.643 16.9605C217.429 17.379 218.399 17.5716 219.896 17.6051H235V12.7748H220.565V11.134H231.73V6.7139H220.565V4.97266H235V4.95591Z" fill="#FFFFFF"/>
<path d="M97.2199 11.7618V0.16748H91.0898V9.07463C91.0982 10.6568 91.1233 11.787 91.1735 12.4148C91.2906 13.9552 91.8509 15.1857 92.8461 16.0899C93.766 16.9186 95.0204 17.6051 97.2701 17.6051H109.104V12.6576H98.1064C97.613 12.6576 97.2116 12.2558 97.2116 11.7618H97.2199Z" fill="#FFFFFF"/>
<path d="M195.159 0.418622C194.197 0.611164 193.378 1.05485 192.717 1.73293C191.923 2.5617 191.429 3.56626 191.262 4.72151C191.103 5.81817 191.02 7.21619 191.02 8.88209C191.02 10.2634 191.086 11.494 191.229 12.5404C191.346 13.4612 191.588 14.2481 191.931 14.876C192.675 16.2154 193.905 17.0358 195.586 17.3288C196.589 17.5046 197.835 17.5967 199.299 17.5967H212.119V8.07844H206.55V12.6576H200.018C199.307 12.6576 198.755 12.599 198.379 12.4818C197.902 12.3311 197.618 12.0214 197.467 11.4856C197.308 10.9331 197.225 10.0541 197.225 8.86535C197.225 7.91938 197.258 7.14922 197.334 6.58833C197.442 5.78468 197.735 5.341 198.295 5.14846C198.529 5.06474 199.031 4.97266 200.102 4.97266H212.119V0.16748H198.655C197.125 0.16748 195.979 0.251194 195.168 0.418622H195.159Z" fill="#FFFFFF"/>
<path d="M123.171 0.410251C122.209 0.602793 121.39 1.04648 120.729 1.72456C119.934 2.55333 119.441 3.55789 119.274 4.71314C119.115 5.80979 119.031 7.20782 119.031 8.87372C119.031 10.255 119.098 11.4856 119.24 12.5404C119.357 13.4612 119.6 14.2481 119.943 14.876C120.687 16.2154 121.916 17.0358 123.597 17.3288C124.601 17.5046 125.847 17.5967 127.311 17.5967H140.139V8.07844H134.57V12.6576H128.038C127.327 12.6576 126.775 12.599 126.391 12.4818C125.914 12.3311 125.63 12.0214 125.479 11.4856C125.32 10.9331 125.237 10.0541 125.237 8.86535C125.237 7.91938 125.27 7.14922 125.345 6.58833C125.454 5.78468 125.747 5.341 126.307 5.14846C126.541 5.06474 127.043 4.97266 128.113 4.97266H140.131V0.16748H126.667C125.136 0.16748 123.99 0.251194 123.179 0.418622L123.171 0.410251Z" fill="#FFFFFF"/>
<path d="M45.0103 1.95053C44.2995 1.09665 43.1872 0.527397 41.6986 0.251142C40.7285 0.0837139 38.3283 0 34.381 0C32.3571 0 30.9438 0.0251142 30.049 0.0837139C27.8578 0.226027 26.3274 0.619483 25.349 1.28082C24.4123 1.92542 23.7683 2.88813 23.4422 4.12709C23.2833 4.70472 23.1746 5.29072 23.1328 5.86834C23.0909 6.4376 23.0742 7.38356 23.0742 8.77321C23.0742 10.8912 23.1411 12.2892 23.2833 13.0426C23.5258 14.2983 23.9941 15.3029 24.6632 16.0145C25.349 16.7344 26.4027 17.2283 27.7909 17.4878C28.7694 17.672 31.0191 17.7557 34.682 17.7557C36.2208 17.7557 37.584 17.739 38.7297 17.6971C40.0427 17.6553 41.0128 17.5715 41.6986 17.4292C42.4094 17.2869 43.0952 17.0274 43.7475 16.6591C44.6089 16.1819 45.278 15.4201 45.7379 14.3904C46.1895 13.3691 46.407 11.653 46.407 9.14155C46.407 7.14916 46.3568 5.83486 46.2564 5.12329C46.0808 3.81735 45.6543 2.75419 44.9936 1.9589L45.0103 1.95053ZM40.5027 8.67276C40.5027 9.49315 40.4943 10.121 40.4692 10.481C40.4191 11.1925 40.3103 11.7032 40.1431 12.0213C39.9758 12.3311 39.6413 12.5571 39.1312 12.6994C38.7548 12.7998 37.6676 12.917 34.6653 12.917C32.7335 12.917 31.4707 12.8752 30.9103 12.7915C30.1075 12.6743 29.5974 12.3813 29.3966 11.9376C29.2879 11.6948 29.1123 10.9665 29.1123 8.78996C29.1123 6.85616 29.2712 6.086 29.4134 5.76788C29.5806 5.37443 30.0406 5.11492 30.7765 4.99772C31.387 4.89726 32.7418 4.84703 34.7991 4.84703C36.3379 4.84703 37.584 4.88052 38.5039 4.93912C39.0893 4.9726 39.566 5.09817 39.9173 5.29909C40.0344 5.36606 40.1347 5.49163 40.2267 5.68417C40.3103 5.86834 40.511 6.52968 40.511 8.68113L40.5027 8.67276Z" fill="#FFFFFF"/>
<path d="M165.58 5.11492C165.404 3.80898 164.978 2.74581 164.317 1.95053C163.606 1.09665 162.494 0.527397 161.005 0.251142C160.027 0.0837139 157.635 0 153.688 0C151.689 0 150.234 0.0251142 149.356 0.0837139C147.173 0.226027 145.634 0.619482 144.656 1.28082C143.719 1.92542 143.075 2.88813 142.749 4.12709C142.59 4.70472 142.481 5.28234 142.439 5.86834C142.398 6.4376 142.381 7.38356 142.381 8.77321C142.381 10.8912 142.448 12.2892 142.59 13.0426C142.832 14.2983 143.301 15.3029 143.97 16.0145C144.656 16.7344 145.709 17.2283 147.098 17.4878L147.215 17.5046L147.683 17.4543C148.753 17.3455 151.279 17.1362 152.751 16.8432C155.369 16.3326 156.397 15.9056 156.397 15.3196C156.397 14.7839 154.992 14.4406 151.856 13.8881C151.589 13.8379 151.346 13.796 151.12 13.7542C150.719 13.6788 150.267 13.6119 149.816 13.5449C148.762 13.3858 146.797 13.0928 146.822 12.7412C146.838 12.4985 147.39 12.1469 149.498 11.7199L153.537 10.8912L151.187 9.60198L148.72 10.8158C148.661 10.3052 148.628 10.0708 148.628 9.0997C148.628 7.04033 148.787 6.21994 148.921 5.88508C149.08 5.46651 149.523 5.19026 150.234 5.06469C150.819 4.96423 152.124 4.90563 154.097 4.90563C155.578 4.90563 156.774 4.93912 157.66 4.99772C158.22 5.03957 158.68 5.16514 159.015 5.37443C159.132 5.44977 159.224 5.58371 159.308 5.78463C159.391 5.97717 159.575 6.68874 159.575 8.9825C159.575 9.85312 159.558 10.0122 159.542 10.3387C159.533 10.5145 159.525 10.5731 159.508 10.6233L156.857 9.28387L154.323 11.3432L153.236 11.6279C152.425 11.8288 151.589 12.1636 151.589 12.6157C151.589 13.118 153.01 13.3691 156.857 13.8798C157.585 13.9802 158.296 14.0723 158.931 14.1728C161.532 14.5662 161.9 15.554 161.917 16.0396C161.942 17.0358 161.097 17.4125 161.097 17.4125L161.356 17.3455C161.959 17.1948 162.527 16.9604 163.063 16.6591C163.924 16.1819 164.593 15.4201 165.045 14.3904C165.496 13.3691 165.714 11.653 165.714 9.14155C165.714 7.14916 165.663 5.84323 165.563 5.12329L165.58 5.11492Z" fill="#FFFFFF"/>
<path d="M17.9219 13.1348C18.9589 12.7329 19.7283 11.9711 20.2217 10.8661C20.6231 9.94526 20.8155 8.59747 20.8155 6.73902C20.8155 5.81817 20.7569 4.9894 20.6399 4.27783C20.4141 2.89655 19.7701 1.83339 18.7247 1.11345C17.9972 0.627907 17.0103 0.34328 15.6973 0.22608C15.1956 0.184223 14.3258 0.16748 13.0295 0.16748H0V17.6051H6.17189V13.4445H11.2733L14.9447 17.6051H21.8776L17.9219 13.1348ZM15.0283 6.80599C15.0283 7.62639 14.8861 8.17053 14.6269 8.37981C14.468 8.49701 14.2422 8.58072 13.9662 8.61421C13.8993 8.62258 13.6819 8.63932 13.063 8.63932H6.17189V4.96428H13.0546C13.6735 4.96428 13.8909 4.98103 13.9578 4.9894C14.2254 5.02288 14.4596 5.1066 14.6185 5.2238C14.8861 5.43308 15.0199 5.97722 15.0199 6.79762L15.0283 6.80599Z" fill="#FFFFFF"/>
<path d="M185.959 13.1348C186.996 12.7329 187.765 11.9711 188.259 10.8661C188.66 9.94526 188.853 8.59747 188.853 6.73902C188.853 5.81817 188.794 4.9894 188.677 4.27783C188.451 2.89655 187.807 1.83339 186.762 1.11345C186.034 0.627907 185.047 0.34328 183.734 0.22608C183.233 0.184223 182.363 0.16748 181.067 0.16748H168.037V17.6051H174.209V13.4445H179.31L182.982 17.6051H189.915L185.959 13.1348ZM183.065 6.80599C183.065 7.62639 182.923 8.17053 182.664 8.37981C182.505 8.49701 182.279 8.58072 182.003 8.61421C181.936 8.62258 181.719 8.63932 181.1 8.63932H174.209V4.96428H181.1C181.719 4.96428 181.936 4.98103 182.003 4.9894C182.271 5.02288 182.505 5.1066 182.664 5.2238C182.932 5.43308 183.065 5.97722 183.065 6.79762V6.80599Z" fill="#FFFFFF"/>
<path d="M84.2912 17.6051H90.7474L81.2471 0.16748H75.0501L65.625 17.6051H72.0729L73.3106 15.0602H83.0451L84.2912 17.6051ZM75.6355 10.255L78.1444 5.07311L80.6867 10.255H75.6355Z" fill="#FFFFFF"/>
<path d="M71.7035 0.16748H65.0215L59.2427 7.81893L53.4555 0.16748H46.7734L56.1483 12.5739V17.6051H62.3202V12.5906L71.7035 0.16748Z" fill="#FFFFFF"/>
</svg>
