<svg width="56" height="52" viewBox="0 0 56 52" fill="none" xmlns="http://www.w3.org/2000/svg">
<g clip-path="url(#clip0_387_30828)">
<path d="M37.934 4.68313L33.5379 8.3012L24.1864 0L0.543701 24.0578H8.99419L20.5049 12.0446H24.5126V9.78916H28.1165V14.1277L30.8039 12.0446H37.6078L48.4816 24.0578H55.8447L37.934 4.68313Z" fill="#FF521D"/>
<path d="M33.5223 20.4554H36.9087V24.0578H43.8058L35.0913 14.4253L26.501 24.0578H33.5223V20.4554Z" fill="#FF521D"/>
<path d="M7.40971 36.3216L5.37476 33.8156H3.40192V36.3216H0.49707V27.8483H6.46216C8.69905 27.8483 10.4854 28.8035 10.4854 30.824C10.4898 31.4497 10.2854 32.0587 9.90507 32.553C9.52469 33.0473 8.9905 33.3982 8.38836 33.5493L10.7496 36.3216H7.40971ZM6.21356 31.8421C6.97473 31.8421 7.51846 31.6229 7.51846 30.9024C7.51846 30.1819 6.97473 29.9627 6.21356 29.9627H3.40192V31.8421H6.21356Z" fill="white"/>
<path d="M11.4796 32.0771C11.4796 29.1795 13.7165 27.5663 17.0719 27.5663C20.4272 27.5663 22.6796 29.1326 22.6796 32.0771C22.6796 35.0217 20.4427 36.588 17.0719 36.588C13.701 36.588 11.4796 34.9747 11.4796 32.0771ZM19.6971 32.0771C19.6971 30.6832 18.7029 29.8686 17.0719 29.8686C15.4408 29.8686 14.4466 30.6832 14.4466 32.0771C14.4466 33.4711 15.4408 34.2856 17.0719 34.2856C18.7029 34.2856 19.6971 33.4711 19.6971 32.0771Z" fill="white"/>
<path d="M26.6874 27.8483L28.7845 31.1999L30.8661 27.8483H34.0815L30.2291 33.4868V36.3216H27.3087V33.4868L23.4563 27.8483H26.6874Z" fill="white"/>
<path d="M41.6 34.8494H37.4214L36.7379 36.3216H33.6311L37.9029 27.8483H41.0097L45.2816 36.3216H42.1748L41.6 34.8494ZM40.7146 32.9386L39.503 30.3229L38.2913 32.9386H40.7146Z" fill="white"/>
<path d="M55.8446 34.0506V36.3216H49.0252C48.4223 36.3175 47.8455 36.0731 47.4206 35.6417C46.9957 35.2104 46.7573 34.6272 46.7573 34.0193V27.8483H49.6932V34.1133L55.8446 34.0506Z" fill="white"/>
<path d="M10.5476 44.8892C9.91377 45.5195 9.15296 46.0052 8.31677 46.3132C7.48059 46.6213 6.58857 46.7444 5.70101 46.6746C2.19033 46.6746 -3.05176e-05 45.1083 -3.05176e-05 42.1637C-3.05176e-05 39.2192 2.19033 37.6531 5.70101 37.6531C7.35732 37.5947 8.97713 38.1521 10.2525 39.2193L8.20196 40.7856C7.54004 40.2091 6.68336 39.9118 5.80976 39.9554C3.91461 39.9554 2.95146 40.8012 2.95146 42.2578C2.95146 43.7144 3.96113 44.5915 5.82521 44.5915C6.53696 44.6307 7.24312 44.4446 7.84471 44.0591V43.3541H5.40586V41.4747H10.5476V44.8892Z" fill="white"/>
<path d="M11.6815 42.1637C11.6815 39.2661 13.9185 37.6531 17.2738 37.6531C20.6292 37.6531 22.8816 39.2192 22.8816 42.1637C22.8816 45.1083 20.6447 46.6746 17.2738 46.6746C13.903 46.6746 11.6815 45.0457 11.6815 42.1637ZM19.899 42.1637C19.899 40.7698 18.9049 39.9554 17.2738 39.9554C15.6428 39.9554 14.6486 40.7698 14.6486 42.1637C14.6486 43.5577 15.6428 44.3565 17.2738 44.3565C18.9049 44.3565 19.899 43.5577 19.899 42.1637Z" fill="white"/>
<path d="M30.9126 46.3927L28.8621 43.9024H26.9048V46.3927H24V37.9192H29.9651C32.202 37.9192 33.9883 38.8903 33.9883 40.9108C33.9912 41.5366 33.7839 42.145 33.4004 42.6369C33.0168 43.1289 32.4795 43.4755 31.8757 43.6204L34.2525 46.3927H30.9126ZM29.7165 41.9289C30.4776 41.9289 31.0214 41.7095 31.0214 40.989C31.0214 40.2685 30.4776 40.0493 29.7165 40.0493H26.9048V41.9289H29.7165Z" fill="white"/>
<path d="M45.3747 44.8893C44.7409 45.5196 43.9802 46.0053 43.144 46.3133C42.3078 46.6214 41.4157 46.7445 40.5281 46.6747C37.0175 46.6747 34.8116 45.1084 34.8116 42.1638C34.8116 39.2192 37.0175 37.6532 40.5281 37.6532C42.1798 37.5943 43.7949 38.152 45.064 39.2194L43.0291 40.7857C42.3608 40.2096 41.4995 39.9126 40.6213 39.9555C38.7417 39.9555 37.7786 40.8013 37.7786 42.2579C37.7786 43.7145 38.7728 44.5916 40.6524 44.5916C41.3642 44.6308 42.0702 44.4446 42.6718 44.0591V43.3542H40.233V41.4748H45.3747V44.8893Z" fill="white"/>
<path d="M56.0621 44.2626V46.3927H46.7418V37.9192H55.8447V40.0493H49.6311V41.1301H54.7107V43.0879H49.6311V44.2626H56.0621Z" fill="white"/>
<path d="M1.69322 49.5096L2.37672 51.0759L3.07577 49.5096H3.94566L2.81162 51.9218H1.94172L0.80777 49.5096H1.69322Z" fill="#A09584"/>
<path d="M6.4777 51.4988H5.28155L5.09515 51.9218H4.22525L5.43685 49.5096H6.3534L7.56509 51.9218H6.6951L6.4777 51.4988ZM6.2291 50.9664L5.8874 50.2144L5.5456 50.9664H6.2291Z" fill="#A09584"/>
<path d="M10.3922 50.9975L11.0757 51.3579C10.9193 51.5756 10.71 51.7489 10.4678 51.8614C10.2257 51.9738 9.95896 52.0215 9.69323 52C8.79226 52 8.13983 51.5458 8.13983 50.7157C8.13983 49.8856 8.76119 49.4313 9.69323 49.4313C9.95131 49.4178 10.2086 49.4696 10.4419 49.5818C10.6751 49.6939 10.877 49.8629 11.0291 50.0735L10.3456 50.4337C10.2782 50.322 10.1817 50.231 10.0668 50.1703C9.95185 50.1095 9.82276 50.0815 9.69323 50.0892C9.25828 50.0892 8.97863 50.3242 8.97863 50.7157C8.97863 51.1073 9.25828 51.3423 9.69323 51.3423C9.82971 51.3535 9.96661 51.3274 10.0896 51.2667C10.2127 51.2061 10.3172 51.1131 10.3922 50.9975Z" fill="#A09584"/>
<path d="M13.934 51.4988H12.7378L12.5514 51.9218H11.6815L12.8932 49.5096H13.7941L15.0058 51.9218H14.1204L13.934 51.4988ZM13.6854 50.9664L13.3437 50.2144L12.9864 50.9664H13.6854Z" fill="#A09584"/>
<path d="M18.066 50.0891H17.1184V51.859H16.2796V50.0891H15.3475V49.4469H18.066V50.0891Z" fill="#A09584"/>
<path d="M19.0446 51.9218V49.5096H19.868V51.9218H19.0446Z" fill="#A09584"/>
<path d="M20.9243 50.7157C20.9243 49.9013 21.5612 49.4313 22.4777 49.4313C23.3942 49.4313 24.0311 49.9013 24.0311 50.7157C24.0311 51.5302 23.3942 52 22.4777 52C21.5612 52 20.9243 51.5458 20.9243 50.7157ZM23.2544 50.7157C23.2544 50.3242 22.9748 50.0892 22.5088 50.0892C22.0428 50.0892 21.7631 50.3242 21.7631 50.7157C21.7631 51.1073 22.0428 51.3423 22.5088 51.3423C22.9748 51.3423 23.2544 51.1073 23.2544 50.7157Z" fill="#A09584"/>
<path d="M28.101 49.5096V51.9218H27.3709L25.9728 50.4807V51.9218H25.1806V49.5096H26.0505L27.2932 50.8253V49.5096H28.101Z" fill="#A09584"/>
<path d="M32.7612 51.9218L32.1864 51.2168H31.6272V51.9218H30.7883V49.5096H32.4971C33.134 49.5096 33.6311 49.7916 33.6311 50.3555C33.6362 50.5344 33.5805 50.7095 33.4731 50.852C33.3657 50.9945 33.2131 51.0957 33.0408 51.1386L33.7087 51.9218H32.7612ZM32.4195 50.653C32.6369 50.653 32.7923 50.6529 32.7923 50.3867C32.7923 50.1204 32.6369 50.1205 32.4195 50.1205H31.6272V50.653H32.4195Z" fill="#A09584"/>
<path d="M37.3282 51.3109V51.9218H34.7029V49.5096H37.2815V50.1205H35.5107V50.418H36.9554V50.9818H35.5107V51.3109H37.3282Z" fill="#A09584"/>
<path d="M41.3048 49.5096V51.9218H40.5281L39.1456 50.4807V51.9218H38.3379V49.5096H39.2232L40.4505 50.8253V49.5096H41.3048Z" fill="#A09584"/>
<path d="M45.002 50.0891H44.0544V51.859H43.2155V50.0891H42.2835V49.4469H45.002V50.0891Z" fill="#A09584"/>
<path d="M47.5961 51.4988H46.4L46.1981 51.9218H45.3282L46.5398 49.5096H47.4563L48.6679 51.9218H47.7825L47.5961 51.4988ZM47.332 50.9664L46.9902 50.2144L46.6485 50.9664H47.332Z" fill="#A09584"/>
<path d="M51.9302 51.2795V51.9218H50.0816C49.9415 51.9218 49.8072 51.8656 49.7081 51.7657C49.6091 51.6659 49.5534 51.5303 49.5534 51.3891V49.5096H50.3922V51.2795H51.9302Z" fill="#A09584"/>
<path d="M55.6271 51.1386C55.6271 51.6711 55.1611 51.9999 54.2757 51.9999C53.7228 52.0215 53.1779 51.8623 52.7223 51.5458L53.1417 51.0602C53.4802 51.2925 53.8819 51.4129 54.2912 51.4047C54.633 51.4047 54.8039 51.4047 54.8039 51.2324C54.8039 51.0602 54.6641 51.0758 54.2136 51.0288C53.4835 51.0288 52.831 50.7939 52.831 50.2457C52.831 49.6975 53.4058 49.4312 54.1825 49.4312C54.6506 49.4216 55.1125 49.5409 55.5185 49.7759L55.1301 50.277C54.8486 50.093 54.5179 50 54.1825 50.0107C53.9339 50.0107 53.6544 50.0109 53.6544 50.1832C53.6544 50.3555 53.8719 50.3241 54.2602 50.3554C55.0525 50.4181 55.6271 50.5747 55.6271 51.1386Z" fill="#A09584"/>
</g>
<defs>
<clipPath id="clip0_387_30828">
<rect width="56" height="52" fill="white"/>
</clipPath>
</defs>
</svg>
