<svg width="101" height="50" viewBox="0 0 101 50" fill="none" xmlns="http://www.w3.org/2000/svg">
<g clip-path="url(#clip0_387_30941)">
<path d="M24.1058 17.5577L25.8942 18.3077C26.0448 18.379 26.2085 18.4183 26.375 18.423C26.4674 18.4376 26.5615 18.4376 26.6538 18.423C26.772 18.3725 26.8788 18.2989 26.968 18.2064C27.0571 18.1139 27.1269 18.0045 27.1731 17.8846C27.2274 17.767 27.2555 17.6391 27.2555 17.5096C27.2555 17.3801 27.2274 17.2521 27.1731 17.1346C27.0551 16.9013 26.852 16.7223 26.6058 16.6346L26.0481 16.3942L25.7596 17.0769L26.3558 17.3269C26.5481 17.4038 26.5385 17.5 26.5 17.5865C26.4615 17.673 26.4038 17.75 26.2115 17.673L24.3558 16.8846C24.2902 16.8599 24.2333 16.8164 24.1923 16.7596C24.1783 16.7158 24.1783 16.6688 24.1923 16.625C24.1923 16.5673 24.25 16.5288 24.2885 16.5192C24.3532 16.493 24.4256 16.493 24.4904 16.5192L24.9615 16.7115L25.25 16.0384L24.8077 15.8557C24.6908 15.7692 24.5559 15.7104 24.413 15.6835C24.2702 15.6567 24.1231 15.6626 23.9828 15.7008C23.8425 15.739 23.7128 15.8085 23.6032 15.9041C23.4937 15.9997 23.4073 16.1189 23.3505 16.2527C23.2937 16.3866 23.2679 16.5315 23.2752 16.6767C23.2825 16.8219 23.3226 16.9636 23.3925 17.091C23.4625 17.2185 23.5604 17.3284 23.6789 17.4126C23.7975 17.4967 23.9335 17.5529 24.0769 17.5769L24.1058 17.5577Z" fill="#C7C1B7"/>
<path d="M28.3942 15.3654L27.8558 14.8943L28.1154 14.5L28.7596 14.7981L29.1827 14.1539L25.6442 12.5962L25.1346 13.3847L28.0192 15.9808L28.3942 15.3654ZM27.3269 14.4039L26.5577 13.7308L27.5192 14.1635L27.3269 14.4039Z" fill="#C7C1B7"/>
<path d="M26.5385 9.93268L27.0385 9.77884L26.9904 9.67307C26.9327 9.52884 26.9904 9.50961 26.9904 9.49038C27.0293 9.46568 27.0713 9.44628 27.1154 9.43268C27.2424 9.40588 27.3572 9.33836 27.4423 9.24037C27.5147 9.13048 27.5533 9.00177 27.5533 8.87018C27.5533 8.73859 27.5147 8.60989 27.4423 8.49999V8.41345L26.9423 8.5673L26.9904 8.67307C27.0481 8.8173 26.9904 8.83653 26.9904 8.85576L26.8654 8.91345C26.7384 8.94025 26.6236 9.00778 26.5385 9.10576C26.4661 9.21566 26.4275 9.34436 26.4275 9.47595C26.4275 9.60754 26.4661 9.73625 26.5385 9.84614V9.93268Z" fill="#C7C1B7"/>
<path d="M27.0962 10.6442L29.9327 13.2019L30.4039 12.6731L28.9135 11.3366L30.75 12.2885L31.2596 11.7212L28.4135 9.1731L27.9423 9.69233L29.0769 10.7116L27.6827 9.98079L27.0962 10.6442Z" fill="#C7C1B7"/>
<path d="M31.6442 10.0673C31.7578 10.2366 31.9223 10.3654 32.1139 10.4351C32.3055 10.5048 32.5143 10.5118 32.7101 10.4551C32.906 10.3984 33.0787 10.2809 33.2034 10.1196C33.3281 9.95829 33.3983 9.76152 33.4038 9.55771C33.4031 9.28648 33.3001 9.02551 33.1154 8.82694L31.8846 7.37501C31.724 7.15965 31.4862 7.0149 31.2212 6.97117C31.0902 6.96141 30.9587 6.97855 30.8347 7.02155C30.7107 7.06454 30.5968 7.13248 30.5 7.22117C30.3956 7.30036 30.3084 7.40007 30.244 7.51416C30.1795 7.62825 30.139 7.75432 30.125 7.88463C30.1238 8.15622 30.227 8.41788 30.4135 8.6154L31.6442 10.0673ZM30.9615 7.76924C30.9956 7.73661 31.0396 7.71631 31.0865 7.71155C31.1584 7.73442 31.2219 7.77788 31.2692 7.83655L32.5385 9.34617C32.6058 9.43271 32.6442 9.50001 32.6346 9.54809C32.6324 9.57348 32.6243 9.59801 32.611 9.61971C32.5976 9.64141 32.5794 9.65969 32.5577 9.67309C32.5203 9.70643 32.473 9.72668 32.4231 9.73078C32.3495 9.71163 32.2849 9.66743 32.2404 9.60578L30.9712 8.09617C30.9157 8.04276 30.8815 7.97099 30.875 7.89424C30.8746 7.84799 30.8918 7.80332 30.9231 7.76924H30.9615Z" fill="#C7C1B7"/>
<path d="M35.375 8.36539L34.2885 6.6827L35.8077 8.07693L36.4519 7.66347L34.3654 4.46155L33.7788 4.84616L34.6058 6.12501L33.4519 5.0577L32.7019 5.54809L34.7885 8.75001L35.375 8.36539Z" fill="#C7C1B7"/>
<path d="M39.1154 5.23076C39.1661 5.41073 39.2724 5.57003 39.4193 5.68577C39.5661 5.80152 39.7459 5.86776 39.9327 5.87499C40.0778 5.87235 40.2213 5.84302 40.3558 5.78845C40.4799 5.74849 40.5936 5.68127 40.6884 5.59172C40.7833 5.50217 40.8569 5.39255 40.9039 5.27088C40.9509 5.14921 40.9701 5.01856 40.9601 4.88851C40.9501 4.75846 40.9112 4.63228 40.8462 4.51922L40.6154 3.95191L39.9327 4.23076L40.1827 4.83653C40.2596 5.01922 40.1827 5.08653 40.0962 5.11537C40.0739 5.12716 40.0492 5.13332 40.024 5.13332C39.9989 5.13332 39.9741 5.12716 39.9519 5.11537C39.8952 5.08075 39.8539 5.02569 39.8365 4.96153L39.0769 3.10576C39.0534 3.0405 39.0534 2.96909 39.0769 2.90384C39.1025 2.86252 39.1391 2.8292 39.1827 2.80768C39.2055 2.79789 39.23 2.79285 39.2548 2.79285C39.2796 2.79285 39.3041 2.79789 39.3269 2.80768C39.3554 2.82444 39.3802 2.84666 39.4 2.87307C39.4198 2.89947 39.4342 2.92954 39.4423 2.96153L39.6442 3.4423L40.2981 3.20191L40.1154 2.7596C40.0759 2.6344 40.0111 2.51862 39.9251 2.41939C39.8391 2.32017 39.7337 2.23961 39.6154 2.18268C39.499 2.13042 39.3728 2.10339 39.2452 2.10339C39.1176 2.10339 38.9914 2.13042 38.875 2.18268C38.7542 2.22668 38.6435 2.29445 38.5493 2.38198C38.4552 2.46951 38.3796 2.57503 38.3269 2.6923C38.2753 2.81228 38.2487 2.94151 38.2487 3.0721C38.2487 3.2027 38.2753 3.33193 38.3269 3.45191L39.1154 5.23076Z" fill="#C7C1B7"/>
<path d="M42.1189 1.07711L41.3817 1.29688L42.4723 4.95509L43.2095 4.73533L42.1189 1.07711Z" fill="#C7C1B7"/>
<path d="M44.4423 1.25963L45.0192 4.30771L45.7692 4.16348L45.2019 1.1154L45.7789 1.00002L45.6539 0.298096L43.7308 0.66348L43.8558 1.3654L44.4423 1.25963Z" fill="#C7C1B7"/>
<path d="M48.125 3.88462L48.8846 3.84615L48.8173 2.22115L49.4327 0L48.6731 0.0384615L48.4039 1.14423L48.0385 0.0673077L47.2212 0.105769L48.0481 2.25962L48.125 3.88462Z" fill="#C7C1B7"/>
<path d="M50.7404 4.49997L51.0865 3.78843L51.1346 3.15382L50.3942 3.11536L50.3462 3.85574L50.5 3.86536L50.2692 4.47113L50.7404 4.49997Z" fill="#C7C1B7"/>
<path d="M55.3462 4.69233C55.4485 4.70112 55.5515 4.70112 55.6539 4.69233C55.8076 4.69661 55.9588 4.65292 56.0865 4.56733C56.1948 4.49505 56.2873 4.40154 56.3584 4.29245C56.4295 4.18336 56.4776 4.06098 56.5 3.93272L56.6442 3.37502L55.9519 3.20195L55.7789 3.83656C55.7759 3.86923 55.7658 3.90085 55.7492 3.92912C55.7326 3.9574 55.7098 3.98161 55.6827 4.00002C55.6615 4.00958 55.6386 4.01453 55.6154 4.01453C55.5922 4.01453 55.5692 4.00958 55.5481 4.00002C55.5246 3.99585 55.5022 3.98686 55.4823 3.97362C55.4625 3.96039 55.4456 3.94319 55.4327 3.9231C55.4182 3.89312 55.4107 3.86025 55.4107 3.82695C55.4107 3.79365 55.4182 3.76078 55.4327 3.73079L55.9423 1.80772C56 1.60579 56.0962 1.60579 56.1827 1.62502C56.2068 1.63086 56.2295 1.64155 56.2493 1.65643C56.2691 1.6713 56.2857 1.69006 56.2981 1.71156C56.3108 1.74203 56.3173 1.77471 56.3173 1.80772C56.3173 1.84072 56.3108 1.8734 56.2981 1.90387L56.1635 2.40387L56.875 2.59618L57 2.12502C57.0548 1.94048 57.053 1.74372 56.9947 1.56023C56.9365 1.37674 56.8245 1.21496 56.6733 1.09583C56.522 0.976706 56.3385 0.905722 56.1465 0.89207C55.9544 0.878417 55.7627 0.922724 55.5962 1.01926C55.3827 1.17052 55.2348 1.39745 55.1827 1.65387L54.6923 3.57695C54.6562 3.69314 54.6448 3.81559 54.6587 3.93646C54.6726 4.05733 54.7116 4.17397 54.7731 4.27893C54.8346 4.38389 54.9174 4.47487 55.016 4.54605C55.1147 4.61723 55.2271 4.66705 55.3462 4.69233Z" fill="#C7C1B7"/>
<path d="M58.3654 5.6731C58.4999 5.72767 58.6433 5.757 58.7885 5.75964C58.9083 5.76204 59.027 5.73566 59.1346 5.68272C59.366 5.56702 59.5448 5.36765 59.6346 5.12503L60.3269 3.3558C60.3895 3.23842 60.4255 3.10867 60.4322 2.9758C60.4389 2.84293 60.4161 2.71022 60.3656 2.58715C60.3151 2.46408 60.238 2.35367 60.1399 2.26382C60.0418 2.17396 59.9251 2.10687 59.7981 2.06733C59.6823 2.01365 59.5563 1.98537 59.4287 1.9844C59.3011 1.98343 59.1747 2.00979 59.0582 2.06171C58.9416 2.11363 58.8374 2.18991 58.7528 2.28541C58.6681 2.38091 58.6049 2.49344 58.5673 2.61541L57.8654 4.38464C57.7663 4.63481 57.7663 4.91332 57.8654 5.16349C57.9605 5.39123 58.1395 5.57369 58.3654 5.6731ZM58.5385 4.71157L59.2596 2.87503C59.3173 2.72118 59.3846 2.68272 59.4519 2.68272H59.5385C59.625 2.68272 59.7115 2.76926 59.625 2.99041L58.9038 4.83657C58.8173 5.05772 58.7211 5.03849 58.625 5.00003C58.6009 4.99375 58.5787 4.98173 58.5603 4.96498C58.5418 4.94823 58.5278 4.92726 58.5192 4.90387C58.5136 4.83318 58.5304 4.76251 58.5673 4.70195L58.5385 4.71157Z" fill="#C7C1B7"/>
<path d="M62.3654 6.7212L61.5385 6.28851L62.9808 3.53851L62.3077 3.18274L60.5288 6.55774L62.0385 7.35582L62.3654 6.7212Z" fill="#C7C1B7"/>
<path d="M63.8365 8.54804C64.0003 8.67092 64.1991 8.73829 64.4039 8.74035C64.4612 8.74986 64.5196 8.74986 64.5769 8.74035C64.8361 8.67046 65.0572 8.50116 65.1923 8.2692L66.2596 6.67304C66.4239 6.45952 66.4997 6.19094 66.4712 5.92304C66.4442 5.79413 66.391 5.67213 66.3149 5.56462C66.2388 5.45711 66.1415 5.36637 66.0289 5.29804C65.9249 5.22164 65.8066 5.16695 65.6811 5.13721C65.5555 5.10748 65.4253 5.10331 65.2981 5.12497C65.0363 5.19449 64.812 5.36356 64.6731 5.59612L63.6058 7.17304C63.4449 7.38796 63.3726 7.65641 63.4038 7.92304C63.4297 8.05116 63.4814 8.17266 63.5558 8.28012C63.6302 8.38758 63.7257 8.47874 63.8365 8.54804ZM64.2115 7.58651L65.2981 5.99997C65.375 5.88458 65.4423 5.84612 65.5 5.84612C65.5391 5.85196 65.5757 5.86861 65.6058 5.8942C65.6827 5.8942 65.7596 6.0192 65.6058 6.22112L64.5 7.85574C64.463 7.9229 64.4058 7.97672 64.3365 8.00958C64.284 8.01296 64.2323 7.99571 64.1923 7.96151C64.1509 7.93877 64.1199 7.90086 64.1058 7.85574C64.1067 7.81348 64.1166 7.77191 64.1349 7.73378C64.1531 7.69565 64.1792 7.66184 64.2115 7.63458V7.58651Z" fill="#C7C1B7"/>
<path d="M67.5096 10.7019L67.9231 10.2211C68.0272 10.125 68.1087 10.0071 68.1619 9.87573C68.2151 9.74442 68.2386 9.60297 68.2308 9.4615C68.3622 9.45538 68.4907 9.42032 68.6071 9.35882C68.7234 9.29733 68.8248 9.21091 68.9039 9.10573L69.0481 8.97112C69.2293 8.79359 69.3329 8.55166 69.3365 8.29804C69.3189 8.17036 69.2757 8.04753 69.2097 7.93686C69.1436 7.82619 69.056 7.72993 68.9519 7.65381L68.2404 7.02881L65.7308 9.91342L66.3077 10.423L67.3269 9.24996L67.4039 9.31727C67.4904 9.39419 67.5096 9.45189 67.5096 9.48073C67.5096 9.50958 67.5096 9.63458 67.3654 9.74996L66.9327 10.2403C66.8131 10.3525 66.721 10.4907 66.6635 10.6442V10.7019L67.2692 11.2307V11.0865C67.3265 10.9454 67.4079 10.8152 67.5096 10.7019ZM68.3462 8.00958L68.4712 8.11535C68.5385 8.17304 68.5481 8.2115 68.5385 8.24035C68.527 8.31767 68.4897 8.38883 68.4327 8.44227L68.25 8.65381C68.0962 8.82689 67.9904 8.80765 67.875 8.7115L67.7981 8.63458L68.3462 8.00958Z" fill="#C7C1B7"/>
<path d="M68.4712 12.4904L69.0769 12.1058L69.3942 12.4712L68.9231 13.0097L69.4231 13.5866L71.9039 10.625L71.2885 9.93274L68 11.9616L68.4712 12.4904ZM70.5192 11.1731L69.8462 11.9424L69.6635 11.7308L70.5192 11.1731Z" fill="#C7C1B7"/>
<path d="M70.6346 15.375C70.7059 15.5143 70.8129 15.6322 70.9447 15.7167C71.0764 15.8012 71.2283 15.8492 71.3846 15.8558C71.6095 15.8658 71.8327 15.8125 72.0288 15.7019L73.5865 14.7404C73.7062 14.6847 73.812 14.6033 73.8965 14.5018C73.981 14.4004 74.0419 14.2816 74.075 14.1538C74.1081 14.026 74.1125 13.8925 74.0879 13.7629C74.0633 13.6332 74.0103 13.5106 73.9327 13.4039L73.4231 12.5865L70.1058 14.5577L70.6346 15.375ZM73.1731 13.5769L73.2692 13.7404C73.2692 13.8173 73.3558 13.9135 73.1538 14.0289L71.5577 14.9904C71.498 15.0384 71.4226 15.0624 71.3462 15.0577C71.3224 15.0507 71.3005 15.0385 71.2822 15.0218C71.2639 15.0051 71.2496 14.9845 71.2404 14.9615L71.1442 14.7981L73.1731 13.5769Z" fill="#C7C1B7"/>
<path d="M72.0288 17.4615C71.9403 17.707 71.943 17.9762 72.0366 18.2199C72.1301 18.4635 72.3083 18.6654 72.5385 18.7884C72.6412 18.8345 72.7528 18.8575 72.8654 18.8558C73.0241 18.8545 73.1809 18.8218 73.3269 18.7596L75.0962 18.0769C75.3558 17.996 75.5733 17.8165 75.7019 17.5769C75.7535 17.4569 75.7801 17.3277 75.7801 17.1971C75.7801 17.0665 75.7535 16.9373 75.7019 16.8173C75.665 16.6884 75.5996 16.5694 75.5104 16.4692C75.4213 16.369 75.3108 16.2902 75.1871 16.2385C75.0634 16.1868 74.9296 16.1635 74.7957 16.1705C74.6618 16.1775 74.5311 16.2145 74.4135 16.2788L72.6442 16.9615C72.381 17.0402 72.1598 17.22 72.0288 17.4615ZM72.875 17.6923L74.7212 16.9808H74.875H74.9135C74.935 16.9931 74.9537 17.0097 74.9686 17.0295C74.9835 17.0494 74.9942 17.072 75 17.0961C75 17.1538 75 17.2019 75 17.2404C74.9822 17.2727 74.9574 17.3007 74.9275 17.3223C74.8976 17.3439 74.8632 17.3586 74.8269 17.3654L72.9904 18.0577C72.9215 18.0791 72.8477 18.0791 72.7788 18.0577C72.7353 18.0305 72.7016 17.99 72.6827 17.9423C72.6346 17.875 72.6154 17.7788 72.8365 17.6923H72.875Z" fill="#C7C1B7"/>
<path d="M20.5192 45.5096V43.9807L19.3173 42.7788H15.0577L15.2981 43.8173V48.9615L15.0385 50H19.2981L20.5962 48.7019V46.7788L19.8846 46.0577L20.5192 45.5096ZM18.5962 47.9038L18.4712 48.1634L18.1154 48.3365H17.2212V46.9711H18.0769L18.4327 47.1442L18.5577 47.4134L18.5962 47.9038ZM18.5962 44.9615L18.4712 45.2211L18.2115 45.3557H17.2212V44.3942H18.1827L18.4423 44.5192L18.5673 44.7788L18.5962 44.9615Z" fill="#C7C1B7"/>
<path d="M29.1827 50L28.625 48.9038L27.2019 43.6442L27.4038 42.7788H24.1923L24.3942 43.6442L22.9904 48.9038L22.4423 50H24.9135L24.7885 49.0384L24.9135 48.3942H26.5096L26.6635 49.0288L26.5385 49.9903L29.1827 50ZM25.3365 46.7211L25.7212 45.1153L26.1058 46.7211H25.3365Z" fill="#C7C1B7"/>
<path d="M35.6442 46.9327L36.6635 45.9134V44.0769L35.3654 42.7788H31.0096L31.2692 43.8173V48.9615L31.0096 50H33.4615L33.2019 48.9615V47.4327H33.7115H33.7692L34.6058 50.0096H37.0385L36.3077 48.75L35.6442 46.9327ZM34.6827 45.3173L34.5577 45.5769L34.1923 45.7596H33.2308V44.423H34.1923L34.5577 44.5961L34.6827 44.8557V45.3173Z" fill="#C7C1B7"/>
<path d="M46.7596 48.2307L48.1923 46.0673L47.8846 45.7596H46.2404L46.0577 46.5961L46 46.7115L44.8077 44.3269H45.8654L47.2596 44.8173L46.5577 42.7788H43.7788L42.625 43.9327L43.3461 45.375L41.9519 46.7692V48.6923L43.25 49.9903H45.1731L45.6538 49.5192L46.1346 49.9903H48.3173L46.9615 48.6442L46.7596 48.2307ZM44.6442 48.3557H44.2788L44.0192 48.2307L43.8846 47.9711V47.3077L44.0385 47.0192L44.1538 46.8942L44.8365 48.2596L44.6442 48.3557Z" fill="#C7C1B7"/>
<path d="M59.0577 45.8558H56.1538L56.6827 46.9231V48.1154L56.5385 48.2597H55.7404L55.4712 48.1251L55.3462 47.8654V45.0481L55.5192 44.6924L55.8846 44.5097H57.0962L58.5192 44.9904L57.7788 42.7693H54.8077L53.3173 44.2597V48.6058L54.7115 50.0001H57.3173L58.7308 48.5866L58.6154 47.9039V46.7308L59.0577 45.8558Z" fill="#C7C1B7"/>
<path d="M63.375 47.4327H63.8942L64.7404 50.0096H67.2212L66.4904 48.75L65.8365 46.9423L66.8558 45.923V44.0769L65.5577 42.7788H61.1731L61.4519 43.8173V48.9615L61.1923 50H63.6442L63.375 48.9615V47.4327ZM63.375 44.4519H64.3365L64.6923 44.625L64.8269 44.8846V45.3461L64.6923 45.6057L64.3365 45.7884H63.375V44.4519Z" fill="#C7C1B7"/>
<path d="M71.8461 42.7693H69.3846L69.6538 43.8174V48.952L69.3846 50.0001H71.8461L71.5865 48.952V43.8174L71.8461 42.7693Z" fill="#C7C1B7"/>
<path d="M76.7211 48.2597V44.0097L77.0288 42.7693H74.5192L74.7885 43.8174V48.952L74.5192 50.0001H78.7692L79.5096 47.7789L78.0673 48.2597H76.7211Z" fill="#C7C1B7"/>
<path d="M83.2981 48.2597V44.0097L83.6058 42.7693H81.1058L81.3654 43.8174V48.952L81.1058 50.0001H85.3462L86.0865 47.7789L84.6442 48.2597H83.2981Z" fill="#C7C1B7"/>
<path d="M10.4038 23.4808H10.2212L10.2885 23.6443C10.4018 23.9514 10.4349 24.2823 10.3846 24.6058C10.2308 26.0385 10.0962 27.4135 9.96154 28.75C9.86538 29.7693 9.75961 30.8173 9.64423 31.9135C9.00961 28.6443 8.04807 23.452 8.03846 23.3943V23.3077L5.95192 23.1827V23.2693C5.95192 23.327 4.90384 28.7116 4.26923 32.202C4.15384 30.9039 4.05769 29.6346 3.96154 28.3558C3.84615 26.8846 3.74038 25.4039 3.59615 23.8173C3.59615 23.4327 3.59615 23.2308 3.66346 23.1827L3.85577 23H3.58654L1.14423 22.8366L0.0384598 22.7596L0.240383 22.9712C0.454235 23.1728 0.584629 23.4473 0.605767 23.7404C0.874998 26.2789 1.20192 28.6731 1.53846 31.0866C1.93269 33.9135 2.34615 36.8558 2.67307 39.6731V39.7404H2.79807L5.01923 39.5577H5.11538V39.4712C5.625 36.5866 6.30769 32.9904 6.82692 30.3366C7.03846 31.4135 7.28846 32.577 7.52884 33.7116C7.93269 35.6346 8.35577 37.5577 8.63461 39.2404V39.3462H8.75L10.9038 39.1923H11V39.0962C11.3269 36.2116 11.7885 33.3846 12.2308 30.6154C12.5385 28.6923 12.8558 26.7693 13.1154 24.8462C13.1566 24.4872 13.2782 24.1421 13.4712 23.8366L13.5865 23.6731H13.375L10.4038 23.4808Z" fill="white"/>
<path d="M18.5481 38.7788L18.4327 38.6057C18.262 38.3158 18.1879 37.979 18.2212 37.6442V32.5769H20.6923V37.3846C20.7269 37.7721 20.643 38.161 20.4519 38.5L20.3173 38.6827H20.5577L23.9519 38.5384H24.1538L24.0481 38.375C23.8711 38.0516 23.7878 37.6853 23.8077 37.3173V25.3173C23.7701 24.9809 23.8481 24.6418 24.0288 24.3557L24.1442 24.1827H23.9519L20.6154 24.048H20.4038L20.5 24.2307C20.6526 24.5488 20.7314 24.8972 20.7308 25.25V30.0577H18.2596V25.25C18.2421 24.8913 18.3254 24.5349 18.5 24.2211L18.6154 24.0577H18.4038L15.0288 23.9038H14.8365L14.9135 24.0769C15.0709 24.4009 15.1562 24.7552 15.1635 25.1153V37.6634C15.1643 38.0492 15.0789 38.4303 14.9135 38.7788L14.8269 38.9519H15.0288L18.3365 38.7788H18.5481Z" fill="white"/>
<path d="M25.5962 38.2404L25.4904 38.4231H25.7019L29.125 38.3173H29.3558L29.2115 38.1346C29.0281 37.9068 28.9356 37.619 28.9519 37.3269V25.5866C28.96 25.2368 29.0317 24.8914 29.1635 24.5673L29.3077 24.3942H29.0769L25.7596 24.2981H25.5288L25.6442 24.4808C25.8044 24.7962 25.8837 25.1464 25.875 25.5V37.2019C25.9011 37.5696 25.8029 37.9353 25.5962 38.2404Z" fill="white"/>
<path d="M32.8077 26.9711V36.5C32.816 37.0284 32.6833 37.5496 32.4231 38.0096L32.3269 38.1731H32.5288L36.1923 38.1057H36.4519L36.3077 37.9327C36.041 37.5181 35.91 37.0308 35.9327 36.5384V27.0192H36.5288H37.4904C37.8344 27.0103 38.1779 27.0524 38.5096 27.1442L38.6731 27.2019V24.6442H38.5481C35.5865 24.5865 32.7788 24.5288 30.4327 24.4519H30.3077V27.1154L30.4808 27.0481C30.8853 26.9635 31.2985 26.928 31.7115 26.9423H32.3077L32.8077 26.9711Z" fill="white"/>
<path d="M47.8077 37.9423V35.2596L47.625 35.3558C47.2896 35.4945 46.9303 35.5663 46.5673 35.5673H43.4038V32.4039H46.7981V30.2885H43.4038V27.1539H46.5C46.884 27.1297 47.2684 27.1921 47.625 27.3366L47.8077 27.4327V24.7404H47.6827C45.0096 24.7404 42.3077 24.7404 40.0769 24.6731H39.7981L39.9808 24.875C40.1077 25.0309 40.2014 25.2112 40.256 25.4047C40.3105 25.5981 40.3249 25.8008 40.2981 26V36.6442C40.349 37.0617 40.2352 37.4825 39.9808 37.8173L39.8269 38.0096H40.0769C42.3077 38.0096 45.0096 37.9423 47.6827 37.9327L47.8077 37.9423Z" fill="white"/>
<path d="M53.7596 37.9424V37.8174L55.4038 31.0866L56.9904 37.8174V37.9135H57.0769H59.3173H59.4135V37.8174C59.4135 37.7404 60.8846 30.125 61.6346 25.6347C61.6529 25.3273 61.7561 25.0311 61.9327 24.7789L62.1346 24.577H61.8462H58.9615H58.7596L58.8654 24.7404C58.9617 24.9409 58.9854 25.1686 58.9327 25.3847C58.7885 26.4424 58.6442 27.4039 58.5 28.375C58.3558 29.3462 58.2115 30.2981 58.0577 31.3847C57.4808 28.9904 57.0962 27.0193 56.7308 24.6539V24.5577H56.6442H54.4423H54.3462V24.6539C53.9135 27.1731 53.5385 29.1539 52.9423 31.5385C52.7981 30.4327 52.6635 29.4135 52.5288 28.4135C52.3942 27.4135 52.2788 26.5674 52.1538 25.5289V25.702C52.0925 25.445 52.1161 25.1751 52.2212 24.9327L52.3462 24.7597H48.6827L48.8077 24.9424C48.99 25.1785 49.1002 25.4623 49.125 25.7597V25.952C49.9135 30.4327 51.3462 37.8174 51.3654 37.8174V37.9039H53.7596V37.9424Z" fill="white"/>
<path d="M53.7596 37.9424V37.8174L55.4038 31.0866L56.9904 37.8174V37.9135H57.0769H59.3173H59.4135V37.8174C59.4135 37.7404 60.8846 30.125 61.6346 25.6347C61.6529 25.3273 61.7561 25.0311 61.9327 24.7789L62.1346 24.577H61.8462H58.9615H58.7596L58.8654 24.7404C58.9617 24.9409 58.9854 25.1686 58.9327 25.3847C58.7885 26.4424 58.6442 27.4039 58.5 28.375C58.3558 29.3462 58.2115 30.2981 58.0577 31.3847C57.4808 28.9904 57.0962 27.0193 56.7308 24.6539V24.5577H56.6442H54.4423H54.3462V24.6539C53.9135 27.1731 53.5385 29.1539 52.9423 31.5385C52.7981 30.4327 52.6635 29.4135 52.5288 28.4135C52.3942 27.4135 52.2788 26.5674 52.1538 25.5289V25.702C52.0925 25.445 52.1161 25.1751 52.2212 24.9327L52.3462 24.7597H48.6827L48.8077 24.9424C48.99 25.1785 49.1002 25.4623 49.125 25.7597V25.952C49.9135 30.4327 51.3462 37.8174 51.3654 37.8174V37.9039H53.7596V37.9424Z" fill="white"/>
<path d="M70.9808 37.2115V26.8269C71.0221 26.5351 71.0002 26.2378 70.9167 25.9552C70.8332 25.6726 70.69 25.4113 70.4967 25.1888C70.3034 24.9664 70.0646 24.788 69.7965 24.6659C69.5283 24.5437 69.237 24.4806 68.9423 24.4807C68.2115 24.4807 66.4519 24.4807 65.3077 24.5576C63.7885 24.6346 63.1058 25.3461 63.1058 27.0576V36.8557C63.1136 37.2231 63.0204 37.5856 62.8366 37.9038L62.7115 38.0769H62.9327H64.8077H66.0673H66.2596L66.1539 37.8942C65.963 37.611 65.8685 37.2738 65.8846 36.9326V34.0865H68.1539V37.173C68.1814 37.4632 68.0952 37.7528 67.9135 37.9807L67.7885 38.1538H68.0096H69.9327H71.3558L71.2404 37.9711C71.0807 37.7491 70.9904 37.4848 70.9808 37.2115ZM65.9039 31.7019V27.2884C65.9039 27.1249 66 26.9999 66.1346 26.9999H67.9039C67.9726 27.006 68.0387 27.0291 68.0962 27.0673C68.1435 27.1137 68.1739 27.1746 68.1827 27.2403V31.6923L65.9039 31.7019Z" fill="white"/>
<path d="M78.4519 26.6923H79.1827C79.599 26.6648 80.0167 26.717 80.4135 26.8461L80.5769 26.9134V24.0288H80.4519L78.2211 24.1346C76.1923 24.2307 74.0961 24.3365 72.1827 24.4038H72.0288V27.1442L72.2019 27.0769C72.603 26.905 73.0348 26.8167 73.4711 26.8173H74.75V37.1538C74.7751 37.5407 74.6918 37.927 74.5096 38.2692L74.4231 38.423H74.6154L77.9808 38.5384H78.1923L78.0865 38.3557C77.895 38.01 77.8113 37.6148 77.8461 37.2211V26.7115L78.4519 26.6923Z" fill="white"/>
<path d="M81.8173 38.5577L81.6442 38.7788H81.8846C84.6731 38.923 87.4904 39.0673 89.5769 39.2019H89.7019V36.1153L89.5288 36.2019C88.8781 36.4719 88.1744 36.5902 87.4711 36.548L85.3077 36.4807V32.6346H88.5192H88.6346V30.125H88.5673H85.3558V26.4134L87.6923 26.3365C88.3425 26.2732 88.9986 26.352 89.6154 26.5673L89.7885 26.6442V23.5288H89.625C87.5577 23.6538 84.9904 23.7884 81.9327 23.9423H81.6538L81.8558 24.125C82.2404 24.4615 82.2308 25.4327 82.2308 26.048V37.173C82.2782 37.6708 82.1299 38.1674 81.8173 38.5577Z" fill="white"/>
<path d="M100.49 39.7404C100.236 39.3953 100.062 38.9978 99.9808 38.577C99.7596 37.6154 99.5096 36.5289 99.2885 35.5481C99.0673 34.5674 98.8558 33.625 98.75 33.2404C99.1867 33.0276 99.5567 32.699 99.8195 32.2903C100.082 31.8817 100.228 31.4088 100.24 30.9231V25.5866C100.229 25.2558 100.148 24.9311 100.004 24.6332C99.8602 24.3352 99.6558 24.0705 99.4038 23.8558C99.0815 23.5787 98.7071 23.3688 98.3026 23.2384C97.898 23.108 97.4715 23.0596 97.0481 23.0962L94.6923 23.2212L91.4712 23.3943H91.1923L91.3942 23.5674C91.5449 23.6939 91.6616 23.856 91.7338 24.039C91.806 24.222 91.8314 24.4201 91.8077 24.6154V31.25C91.8077 33.452 91.8077 35.6539 91.8077 37.8943C91.8077 38.4327 91.8077 38.8558 91.4423 39.1058L91.1731 39.2981H91.5L95.0385 39.4904H95.25L95.1538 39.3077C94.9605 38.9314 94.8772 38.5081 94.9135 38.0866V33.577H95.875C96.1058 34.4424 96.3365 35.5 96.5577 36.6058C96.6923 37.202 96.8173 37.7981 96.9423 38.3654C97.0289 38.75 97.1442 39.2693 97.0096 39.4616L96.8942 39.625H97.0962L100.356 39.8366H100.596L100.49 39.7404ZM97.1827 29.8366C97.1827 30.3654 96.9808 30.6347 96.5577 30.6731C95.7981 30.6731 95.5962 30.6731 94.9038 30.6731V26.2212H95.7115H96.5673C96.8173 26.2212 96.9615 26.2212 97.0385 26.2981C97.1154 26.375 97.1635 26.5674 97.1635 26.9231C97.1635 27.577 97.1635 28 97.1635 28.4231C97.1635 28.8462 97.1827 29.1635 97.1827 29.8366Z" fill="white"/>
<path fill-rule="evenodd" clip-rule="evenodd" d="M54.8846 12.9327C50.875 8.97118 46.6058 14.1346 51.8365 15.4135C54.3846 16.0385 56.3077 14.9904 60.4904 14.9904C62.7096 14.9346 64.8855 15.6104 66.6827 16.9135C66.9904 17.1443 66.7596 17.3558 66.5769 17.2789C62.2885 15.4135 58.6058 16.5866 55.1538 17.9712C53.0726 19.0551 50.7692 19.6441 48.4231 19.6923C47.3173 19.6923 45.75 19.3846 45.1731 18.5962C44.0673 17.1154 45.7211 15.5673 47.25 17.0481C47.5 17.2885 47.7788 17.1539 47.6923 16.7885C47.0577 14.2596 45.1923 14.952 43.2019 15.827C40.9038 16.8654 37.9519 17.9135 34.2692 16.5962C33.8461 16.452 33.4808 15.952 34.2692 15.9808C40.2308 16.1539 43.0481 12.0866 46.7692 10.5866C49.9231 9.29811 54.4615 9.62503 55.2788 12.7212C55.2788 12.7212 55.3654 12.9039 55.2019 12.9712C55.1968 13.0133 55.1752 13.0516 55.1419 13.0777C55.1085 13.1039 55.0661 13.1157 55.024 13.1106C54.982 13.1055 54.9436 13.0839 54.9175 13.0505C54.8913 13.0172 54.8795 12.9748 54.8846 12.9327Z" fill="white"/>
</g>
<defs>
<clipPath id="clip0_387_30941">
<rect width="100.625" height="50" fill="white"/>
</clipPath>
</defs>
</svg>
