<svg xmlns="http://www.w3.org/2000/svg" viewBox="0 0 265 100" preserveAspectRatio="xMidYMid meet">
  <path d="M 16,15 L 6,15 L 6,25 M 6,59.75999999999999 L 6,69.75999999999999 L 16,69.75999999999999 M 247.49199999999996,15 L 257.49199999999996,15 L 257.49199999999996,25 M 257.49199999999996,59.75999999999999 L 257.49199999999996,69.75999999999999 L 247.49199999999996,69.75999999999999" stroke="#FFFFFF" stroke-width="2" fill="none" stroke-linecap="square"/>
  <path d="M21.12 27.10L20.20 18L21.57 18L22.21 24.99L22.24 24.99L22.91 18L24.47 18L25.15 24.99L25.17 24.99L25.81 18L27.05 18L26.12 27.10L24.34 27.10L23.69 20.96L23.67 20.96L23.02 27.10L21.12 27.10ZM27.77 27.10L27.77 18L29.20 18L29.20 21.71L30.74 21.71L30.74 18L32.17 18L32.17 27.10L30.74 27.10L30.74 23.01L29.20 23.01L29.20 27.10L27.77 27.10ZM33.23 27.10L33.23 18L34.66 18L34.66 27.10L33.23 27.10ZM36.85 27.10L36.85 19.30L35.35 19.30L35.35 18L39.77 18L39.77 19.30L38.28 19.30L38.28 27.10L36.85 27.10ZM40.46 27.10L40.46 18L44.36 18L44.36 19.30L41.89 19.30L41.89 21.71L43.86 21.71L43.86 23.01L41.89 23.01L41.89 25.80L44.36 25.80L44.36 27.10L40.46 27.10ZM45.77 27.10L44.84 18L46.22 18L46.86 24.99L46.88 24.99L47.56 18L49.12 18L49.80 24.99L49.82 24.99L50.46 18L51.69 18L50.77 27.10L48.99 27.10L48.34 20.96L48.31 20.96L47.66 27.10L45.77 27.10ZM51.86 27.10L53.34 18L55.28 18L56.76 27.10L55.33 27.10L55.07 25.29L55.07 25.32L53.45 25.32L53.19 27.10L51.86 27.10ZM53.62 24.08L54.91 24.08L54.27 19.59L54.24 19.59L53.62 24.08ZM57.97 27.10L57.97 19.30L56.48 19.30L56.48 18L60.90 18L60.90 19.30L59.40 19.30L59.40 27.10L57.97 27.10ZM61.59 27.10L61.59 18L65.49 18L65.49 19.30L63.02 19.30L63.02 21.71L64.98 21.71L64.98 23.01L63.02 23.01L63.02 25.80L65.49 25.80L65.49 27.10L61.59 27.10ZM66.31 27.10L66.31 18L68.42 18Q69.53 18 70.04 18.51Q70.54 19.03 70.54 20.09L70.54 20.09L70.54 20.65Q70.54 22.07 69.61 22.45L69.61 22.45L69.61 22.47Q70.13 22.63 70.34 23.11Q70.56 23.59 70.56 24.40L70.56 24.40L70.56 26.00Q70.56 26.39 70.58 26.63Q70.61 26.87 70.71 27.10L70.71 27.10L69.26 27.10Q69.18 26.88 69.15 26.68Q69.13 26.49 69.13 25.98L69.13 25.98L69.13 24.32Q69.13 23.69 68.93 23.45Q68.72 23.20 68.23 23.20L68.23 23.20L67.74 23.20L67.74 27.10L66.31 27.10ZM67.74 21.90L68.26 21.90Q68.69 21.90 68.90 21.68Q69.11 21.46 69.11 20.94L69.11 20.94L69.11 20.24Q69.11 19.74 68.94 19.52Q68.76 19.30 68.39 19.30L68.39 19.30L67.74 19.30L67.74 21.90Z" fill="#FFFFFF"/>
  <path d="M19.89 65.76L19.89 33.56L27.38 33.56Q31.29 33.56 33.09 35.38Q34.88 37.19 34.88 40.97L34.88 40.97L34.88 42.94Q34.88 47.96 31.57 49.29L31.57 49.29L31.57 49.38Q33.41 49.94 34.17 51.64Q34.93 53.34 34.93 56.19L34.93 56.19L34.93 61.85Q34.93 63.23 35.02 64.08Q35.11 64.93 35.48 65.76L35.48 65.76L30.33 65.76Q30.05 64.98 29.96 64.29Q29.87 63.60 29.87 61.80L29.87 61.80L29.87 55.92Q29.87 53.71 29.16 52.83Q28.44 51.96 26.69 51.96L26.69 51.96L24.95 51.96L24.95 65.76L19.89 65.76ZM24.95 47.36L26.79 47.36Q28.30 47.36 29.06 46.58Q29.82 45.80 29.82 43.96L29.82 43.96L29.82 41.47Q29.82 39.72 29.20 38.94Q28.58 38.16 27.25 38.16L27.25 38.16L24.95 38.16L24.95 47.36ZM45.74 66.22Q42.01 66.22 40.03 64.10Q38.06 61.99 38.06 58.12L38.06 58.12L38.06 41.20Q38.06 37.33 40.03 35.22Q42.01 33.10 45.74 33.10L45.74 33.10Q49.46 33.10 51.44 35.22Q53.42 37.33 53.42 41.20L53.42 41.20L53.42 58.12Q53.42 61.99 51.44 64.10Q49.46 66.22 45.74 66.22L45.74 66.22ZM45.74 61.62Q48.36 61.62 48.36 58.45L48.36 58.45L48.36 40.87Q48.36 37.70 45.74 37.70L45.74 37.70Q43.12 37.70 43.12 40.87L43.12 40.87L43.12 58.45Q43.12 61.62 45.74 61.62L45.74 61.62ZM64.14 66.22Q60.41 66.22 58.43 64.10Q56.46 61.99 56.46 58.12L56.46 58.12L56.46 41.20Q56.46 37.33 58.43 35.22Q60.41 33.10 64.14 33.10L64.14 33.10Q67.86 33.10 69.84 35.22Q71.82 37.33 71.82 41.20L71.82 41.20L71.82 58.12Q71.82 61.99 69.84 64.10Q67.86 66.22 64.14 66.22L64.14 66.22ZM64.14 61.62Q66.76 61.62 66.76 58.45L66.76 58.45L66.76 40.87Q66.76 37.70 64.14 37.70L64.14 37.70Q61.52 37.70 61.52 40.87L61.52 40.87L61.52 58.45Q61.52 61.62 64.14 61.62L64.14 61.62ZM75.22 65.76L75.22 33.56L88.61 33.56L88.61 38.16L80.28 38.16L80.28 47.13L86.82 47.13L86.82 51.73L80.28 51.73L80.28 65.76L75.22 65.76ZM95.46 65.76L95.46 38.16L90.17 38.16L90.17 33.56L105.81 33.56L105.81 38.16L100.52 38.16L100.52 65.76L95.46 65.76ZM115.38 66.22Q111.66 66.22 109.68 64.10Q107.70 61.99 107.70 58.12L107.70 58.12L107.70 41.20Q107.70 37.33 109.68 35.22Q111.66 33.10 115.38 33.10L115.38 33.10Q119.11 33.10 121.09 35.22Q123.06 37.33 123.06 41.20L123.06 41.20L123.06 58.12Q123.06 61.99 121.09 64.10Q119.11 66.22 115.38 66.22L115.38 66.22ZM115.38 61.62Q118.00 61.62 118.00 58.45L118.00 58.45L118.00 40.87Q118.00 37.70 115.38 37.70L115.38 37.70Q112.76 37.70 112.76 40.87L112.76 40.87L112.76 58.45Q112.76 61.62 115.38 61.62L115.38 61.62ZM126.47 65.76L126.47 33.56L133.92 33.56Q137.69 33.56 139.58 35.58Q141.46 37.61 141.46 41.52L141.46 41.52L141.46 44.69Q141.46 48.60 139.58 50.63Q137.69 52.65 133.92 52.65L133.92 52.65L131.53 52.65L131.53 65.76L126.47 65.76ZM131.53 48.05L133.92 48.05Q135.16 48.05 135.78 47.36Q136.40 46.67 136.40 45.01L136.40 45.01L136.40 41.20Q136.40 39.54 135.78 38.85Q135.16 38.16 133.92 38.16L133.92 38.16L131.53 38.16L131.53 48.05ZM158.16 66.22Q154.48 66.22 152.60 64.13Q150.71 62.03 150.71 58.12L150.71 58.12L150.71 56.28L155.49 56.28L155.49 58.49Q155.49 61.62 158.12 61.62L158.12 61.62Q159.40 61.62 160.07 60.86Q160.74 60.10 160.74 58.40L160.74 58.40Q160.74 56.38 159.82 54.83Q158.90 53.29 156.41 51.13L156.41 51.13Q153.29 48.37 152.04 46.14Q150.80 43.91 150.80 41.10L150.80 41.10Q150.80 37.29 152.73 35.19Q154.67 33.10 158.35 33.10L158.35 33.10Q161.98 33.10 163.84 35.19Q165.71 37.29 165.71 41.20L165.71 41.20L165.71 42.53L160.92 42.53L160.92 40.87Q160.92 39.22 160.28 38.46Q159.63 37.70 158.39 37.70L158.39 37.70Q155.86 37.70 155.86 40.78L155.86 40.78Q155.86 42.53 156.80 44.05Q157.75 45.57 160.23 47.73L160.23 47.73Q163.41 50.49 164.60 52.74Q165.80 55.00 165.80 58.03L165.80 58.03Q165.80 61.99 163.84 64.10Q161.89 66.22 158.16 66.22L158.16 66.22ZM176.01 66.22Q172.28 66.22 170.31 64.10Q168.33 61.99 168.33 58.12L168.33 58.12L168.33 41.20Q168.33 37.33 170.31 35.22Q172.28 33.10 176.01 33.10L176.01 33.10Q179.74 33.10 181.71 35.22Q183.69 37.33 183.69 41.20L183.69 41.20L183.69 58.12Q183.69 61.99 181.71 64.10Q179.74 66.22 176.01 66.22L176.01 66.22ZM176.01 61.62Q178.63 61.62 178.63 58.45L178.63 58.45L178.63 40.87Q178.63 37.70 176.01 37.70L176.01 37.70Q173.39 37.70 173.39 40.87L173.39 40.87L173.39 58.45Q173.39 61.62 176.01 61.62L176.01 61.62ZM194.23 66.22Q190.59 66.22 188.68 64.15Q186.77 62.08 186.77 58.31L186.77 58.31L186.77 41.01Q186.77 37.24 188.68 35.17Q190.59 33.10 194.23 33.10L194.23 33.10Q197.86 33.10 199.77 35.17Q201.68 37.24 201.68 41.01L201.68 41.01L201.68 44.42L196.89 44.42L196.89 40.69Q196.89 37.70 194.36 37.70L194.36 37.70Q191.83 37.70 191.83 40.69L191.83 40.69L191.83 58.68Q191.83 61.62 194.36 61.62L194.36 61.62Q196.89 61.62 196.89 58.68L196.89 58.68L196.89 53.75L201.68 53.75L201.68 58.31Q201.68 62.08 199.77 64.15Q197.86 66.22 194.23 66.22L194.23 66.22ZM204.71 65.76L204.71 33.56L209.77 33.56L209.77 65.76L204.71 65.76ZM212.21 65.76L217.46 33.56L224.31 33.56L229.55 65.76L224.49 65.76L223.57 59.37L223.57 59.46L217.82 59.46L216.90 65.76L212.21 65.76ZM218.42 55.09L222.98 55.09L220.72 39.17L220.63 39.17L218.42 55.09ZM231.99 65.76L231.99 33.56L237.05 33.56L237.05 61.16L245.38 61.16L245.38 65.76L231.99 65.76Z" fill="#FFFFFF"/>
  </svg>