<?xml version="1.0" encoding="UTF-8"?><svg id="a" xmlns="http://www.w3.org/2000/svg" viewBox="0 0 55.52 52.66"><defs><style>.b{fill:#fff;}.c{fill:orange;}.d{fill:#7a7f86;}</style></defs><g><path class="b" d="M7.36,34.59l-2-2.48h-1.94v2.48H.56v-8.39H6.43c2.21,0,3.96,.95,3.96,2.95,0,.62-.2,1.22-.57,1.71-.37,.49-.9,.83-1.49,.98l2.32,2.75h-3.28Zm-1.16-4.43c.74,0,1.26-.21,1.26-.93s-.53-.93-1.26-.93H3.42v1.87h2.78Z"/><path class="b" d="M11.29,30.38c0-2.86,2.2-4.48,5.51-4.48s5.51,1.62,5.51,4.48-2.2,4.48-5.51,4.48-5.51-1.61-5.51-4.48Zm8.1,0c0-1.38-.98-2.19-2.59-2.19s-2.59,.81-2.59,2.19,.98,2.19,2.59,2.19,2.6-.81,2.6-2.19h-.02Z"/><path class="b" d="M26.25,26.19l2.06,3.33,2.05-3.33h3.18l-3.79,5.6v2.8h-2.82v-2.8l-3.78-5.6h3.1Z"/><path class="b" d="M40.93,33.13h-4.14l-.68,1.53h-3.01l4.2-8.4h3.18l4.2,8.4h-3.01l-.74-1.53Zm-.87-1.9l-1.2-2.6-1.19,2.6h2.39Z"/><path class="b" d="M54.93,32.34v2.25h-6.7c-.59,0-1.16-.25-1.58-.67-.42-.43-.65-1-.65-1.61v-6.12h2.88v6.12l6.05,.03Z"/><path class="b" d="M10.37,43.09c-.62,.62-1.37,1.1-2.19,1.4-.82,.3-1.69,.43-2.57,.36-3.46,0-5.62-1.53-5.62-4.48s2.15-4.47,5.62-4.47c1.64-.07,3.25,.47,4.52,1.53l-2.02,1.53c-.65-.58-1.5-.88-2.36-.84-1.85,0-2.79,.84-2.79,2.28s.98,2.32,2.82,2.32c.7,.03,1.39-.15,1.99-.54v-.69h-2.39v-1.87h5v3.46Z"/><path class="b" d="M11.5,40.37c0-2.86,2.18-4.47,5.49-4.47s5.51,1.53,5.51,4.47-2.2,4.48-5.51,4.48-5.49-1.67-5.49-4.48Zm8.08,0c0-1.38-.98-2.17-2.59-2.17s-2.59,.8-2.59,2.17,.98,2.19,2.59,2.19,2.59-.8,2.59-2.19Z"/><path class="b" d="M30.41,44.57l-2-2.48h-1.94v2.48h-2.86v-8.4h5.87c2.21,0,3.96,.96,3.96,2.97,0,.62-.2,1.22-.58,1.71-.38,.49-.91,.83-1.5,.97l2.33,2.75h-3.28Zm-1.17-4.42c.75,0,1.28-.23,1.28-.95s-.53-.93-1.28-.93h-2.77v1.85l2.77,.03Z"/><path class="b" d="M44.63,43.09c-.62,.62-1.37,1.1-2.19,1.4-.82,.3-1.69,.43-2.57,.36-3.46,0-5.63-1.53-5.63-4.48s2.17-4.47,5.63-4.47c1.64-.08,3.25,.46,4.52,1.53l-2,1.53c-.65-.58-1.5-.88-2.36-.84-1.85,0-2.8,.84-2.8,2.28s.98,2.32,2.83,2.32c.7,.03,1.39-.15,1.97-.54v-.69h-2.39v-1.87h5.06l-.06,3.46Z"/><path class="b" d="M55.08,42.46v2.11h-9.03v-8.4h8.94v2.11h-6.13v1.07h5v1.94h-5v1.16h6.22Z"/></g><path class="c" d="M2.32,23.18c3.43,0,10.54-3.27,13.8-5.75,4.59-3.49,11.05-7.68,19.26-6.2,5,.9,7.47,4.59,7.57,6.5-1.21-.98-3.95-1.95-6.21-1.25-2.45,.76-2.33,3.61-.55,4.82,1.41,.95,2.92,1.87,8.21,1.87h11.12L38.12,4.25l-4.22,3.53L25.77,0,.23,23.18H2.32Z"/><g><path class="d" d="M4.87,52.49l-1.27-1.54h-1.22v1.54H.57v-5.24h3.71c1.39,0,2.5,.6,2.5,1.85,0,.86-.52,1.42-1.31,1.68l1.47,1.71h-2.07Zm-.74-2.76c.47,0,.81-.13,.81-.58s-.34-.58-.81-.58h-1.75v1.17h1.75Z"/><path class="d" d="M13.72,51.58h-2.61l-.43,.91h-1.89l2.65-5.24h1.98l2.65,5.24h-1.92l-.43-.91Zm-.55-1.18l-.75-1.62-.75,1.62h1.51Z"/><path class="d" d="M19.92,48.61v.79h3.15v1.33h-3.15v1.74h-1.82v-5.24h5.63v1.37h-3.81Z"/><path class="d" d="M32.09,48.63h-2.07v3.86h-1.82v-3.86h-2.06v-1.38h5.94v1.38Z"/><path class="d" d="M34.6,52.49v-5.24h1.82v5.24h-1.82Z"/><path class="d" d="M45.72,47.24v5.24h-1.6l-3.03-3.14v3.14h-1.75v-5.24h1.92l2.69,2.85v-2.85h1.76Z"/><path class="d" d="M54.94,51.56c-.6,.69-1.63,1.1-3.01,1.1-2.19,0-3.55-1-3.55-2.79s1.36-2.79,3.55-2.79c1.31,0,2.25,.42,2.82,.94l-1.27,.95c-.45-.37-.87-.52-1.49-.52-1.17,0-1.77,.52-1.77,1.42s.62,1.45,1.78,1.45c.5,0,.9-.09,1.25-.33v-.43h-1.51v-1.16h3.19v2.17Z"/></g></svg>