<svg width="56" height="53" viewBox="0 0 56 53" fill="none" xmlns="http://www.w3.org/2000/svg">
<g clip-path="url(#clip0_381_30801)">
<path d="M7.36128 36.7299L5.35919 34.2527H3.4172V36.7299H0.556946V28.335H6.42795C8.64085 28.335 10.3871 29.2829 10.3871 31.2861C10.3912 31.9049 10.19 32.5071 9.81578 32.9954C9.44159 33.4837 8.91628 33.8296 8.32474 33.9774L10.6431 36.7299H7.36128ZM6.20211 32.2954C6.93974 32.2954 7.46657 32.0813 7.46657 31.3626C7.46657 30.6439 6.93974 30.4299 6.20211 30.4299H3.4172V32.2954H6.20211Z" fill="white"/>
<path d="M11.2903 32.5248C11.2903 29.6653 13.4882 28.0443 16.8 28.0443C20.1118 28.0443 22.3097 29.6653 22.3097 32.5248C22.3097 35.3843 20.1118 37.0052 16.8 37.0052C13.4882 37.0052 11.2903 35.3996 11.2903 32.5248ZM19.3892 32.5248C19.3892 31.1485 18.4108 30.338 16.8 30.338C15.1893 30.338 14.2108 31.1485 14.2108 32.5248C14.2108 33.901 15.1893 34.7115 16.8 34.7115C18.4108 34.7115 19.4043 33.901 19.4043 32.5248H19.3892Z" fill="white"/>
<path d="M26.2538 28.335L28.3162 31.6684L30.3635 28.335H33.5398L29.7462 33.9317V36.7299H26.9312V33.9317L23.1526 28.335H26.2538Z" fill="white"/>
<path d="M40.9313 35.2774H36.7915L36.114 36.8065H33.1032L37.3033 28.4114H40.4796L44.6796 36.8065H41.6689L40.9313 35.2774ZM40.058 33.3811L38.8539 30.7816L37.6645 33.3811H40.058Z" fill="white"/>
<path d="M54.9312 34.4821V36.7299H48.2323C47.6401 36.7259 47.0734 36.484 46.656 36.0572C46.2386 35.6303 46.0044 35.0532 46.0044 34.4515V28.335H48.8795V34.4515L54.9312 34.4821Z" fill="white"/>
<path d="M10.3721 45.2318C9.74771 45.8514 9.00042 46.3289 8.18016 46.6321C7.35989 46.9354 6.48542 47.0574 5.61502 46.9903C2.15266 46.9903 0 45.4613 0 42.5101C0 39.5588 2.15266 38.0449 5.61502 38.0449C7.25473 37.97 8.86364 38.5148 10.1312 39.574L8.114 41.1032C7.46168 40.5251 6.61553 40.2239 5.75064 40.2621C3.89903 40.2621 2.96555 41.1033 2.96555 42.5407C2.96555 43.9781 3.94403 44.8648 5.78059 44.8648C6.48134 44.8978 7.17521 44.711 7.76779 44.3296V43.6416H5.3743V41.7761H10.3721V45.2318Z" fill="white"/>
<path d="M11.5011 42.5102C11.5011 39.6507 13.6839 38.045 16.9958 38.045C20.3076 38.045 22.5055 39.5743 22.5055 42.5102C22.5055 45.4461 20.3076 46.9905 16.9958 46.9905C13.6839 46.9905 11.5011 45.3238 11.5011 42.5102ZM19.585 42.5102C19.585 41.134 18.6065 40.3388 16.9958 40.3388C15.385 40.3388 14.4066 41.134 14.4066 42.5102C14.4066 43.8864 15.385 44.6968 16.9958 44.6968C18.6065 44.6968 19.585 43.9017 19.585 42.5102Z" fill="white"/>
<path d="M30.4087 46.7153L28.4064 44.2381H26.4644V46.7153H23.6044V38.3203H29.4752C31.6881 38.3203 33.4343 39.2836 33.4343 41.2868C33.4397 41.9064 33.2367 42.5093 32.859 42.9958C32.4812 43.4824 31.9513 43.8235 31.3569 43.9628L33.6903 46.7153H30.4087ZM29.2345 42.296C29.9872 42.296 30.514 42.0667 30.514 41.348C30.514 40.6293 29.9872 40.4152 29.2345 40.4152H26.4644V42.2654L29.2345 42.296Z" fill="white"/>
<path d="M44.6344 45.2318C44.0101 45.8514 43.2628 46.3289 42.4425 46.6321C41.6223 46.9353 40.7478 47.0574 39.8774 46.9903C36.415 46.9903 34.2473 45.4613 34.2473 42.51C34.2473 39.5588 36.415 38.0449 39.8774 38.0449C41.5181 37.9625 43.1296 38.5082 44.3935 39.574L42.3915 41.1031C41.7391 40.525 40.8928 40.2238 40.0279 40.262C38.1763 40.262 37.2279 41.1032 37.2279 42.5406C37.2279 43.978 38.2064 44.8648 40.058 44.8648C40.754 44.8976 41.443 44.7107 42.0302 44.3296V43.6416H39.6365V41.7761H44.6947L44.6344 45.2318Z" fill="white"/>
<path d="M55.0816 44.6051V46.7153H46.0494V38.3203H54.9914V40.4305H48.8644V41.5009H53.8624V43.4429H48.8644V44.6051H55.0816Z" fill="white"/>
<path d="M33.886 2.58425L30.7849 5.12262L25.2 0L16.9505 8.37969L22.0086 8.77726L25.3204 5.39786L30.6494 10.2758L33.5699 7.87507L46.1097 21.041H9.93547L18.4107 12.4319L13.3527 12.019L0.617188 24.9556H55.2021L33.886 2.58425Z" fill="#E44136"/>
<path d="M24.9742 18.9308C27.2107 18.9308 29.0237 17.0891 29.0237 14.8174C29.0237 12.5456 27.2107 10.704 24.9742 10.704C22.7378 10.704 20.9247 12.5456 20.9247 14.8174C20.9247 17.0891 22.7378 18.9308 24.9742 18.9308Z" fill="#E44136"/>
<path d="M52.0558 15.0926L4.81728 11.3309L1.32471 14.9856L56.0001 19.3283L52.0558 15.0926Z" fill="#E44136"/>
<path d="M3.77848 50.2627L1.70105 52.0519H3.85382V52.8928H0.0602417V52.2048L2.13767 50.4156H0.150469V49.5747H3.77848V50.2627Z" fill="#7A7F86"/>
<path d="M5.23865 52.9694V49.6511H6.38275V52.9694H5.23865Z" fill="#7A7F86"/>
<path d="M11.787 50.7675C11.787 51.5779 11.1547 51.9754 10.2816 51.9754H9.13769V52.8928H7.99359V49.5747H10.2816C11.1547 49.5747 11.787 49.9112 11.787 50.7675ZM10.628 50.7675C10.628 50.4769 10.4322 50.3852 10.1311 50.3852H9.07742V51.1649H10.1311C10.372 51.1955 10.628 51.0884 10.628 50.7979V50.7675Z" fill="#7A7F86"/>
<path d="M16.3935 52.006V52.8928H14.0301C13.9162 52.8928 13.8033 52.8698 13.6982 52.8251C13.5931 52.7803 13.4977 52.7148 13.4178 52.6322C13.3379 52.5497 13.2752 52.4517 13.233 52.3442C13.1907 52.2367 13.1699 52.1217 13.1719 52.006V49.5747H14.301V52.006H16.3935Z" fill="#7A7F86"/>
<path d="M17.5226 52.9694V49.6511H18.6516V52.9694H17.5226Z" fill="#7A7F86"/>
<path d="M24.0559 49.5747V52.9694H23.0625L21.1657 50.9814V52.9694H20.0666V49.6511H21.271L22.957 51.4555V49.6511L24.0559 49.5747Z" fill="#7A7F86"/>
<path d="M29.0387 52.0672V52.8928H25.4258V49.5747H28.9634V50.4156H26.5397V50.8285H28.5119V51.6084H26.5397V52.0672H29.0387Z" fill="#7A7F86"/>
<path d="M35.2861 50.4616H33.9913V52.9694H32.8623V50.5381H31.5677V49.6511H35.2861V50.4616Z" fill="#7A7F86"/>
<path d="M36.114 51.2415C36.114 50.1099 36.9872 49.4677 38.2818 49.4677C39.5764 49.4677 40.4645 50.1099 40.4645 51.2415C40.4645 52.3731 39.5915 53.0001 38.2818 53.0001C36.9721 53.0001 36.114 52.3731 36.114 51.2415ZM39.3053 51.2415C39.3053 50.691 38.914 50.37 38.2818 50.37C37.6495 50.37 37.2581 50.691 37.2581 51.2415C37.2581 51.792 37.6495 52.0979 38.2818 52.0979C38.914 52.0979 39.3053 51.7767 39.3053 51.2415Z" fill="#7A7F86"/>
<path d="M45.5376 49.5747V51.3333C45.5376 52.3578 44.8451 53 43.5956 53C42.3462 53 41.6387 52.3578 41.6387 51.3333V49.5747H42.7828V51.2414C42.7828 51.3499 42.8037 51.4573 42.8446 51.5574C42.8854 51.6576 42.9453 51.7486 43.0208 51.8253C43.0963 51.902 43.1861 51.9628 43.2847 52.0043C43.3833 52.0458 43.4889 52.0672 43.5956 52.0672C43.7024 52.0672 43.8081 52.0458 43.9067 52.0043C44.0053 51.9628 44.0949 51.902 44.1704 51.8253C44.2459 51.7486 44.3058 51.6576 44.3466 51.5574C44.3875 51.4573 44.4086 51.3499 44.4086 51.2414V49.5747H45.5376Z" fill="#7A7F86"/>
<path d="M49.5118 52.9694L48.7139 51.9908H47.9612V52.9694H46.8322V49.6511H49.1506C50.0237 49.6511 50.6559 50.0334 50.6559 50.8286C50.6588 51.0722 50.5799 51.3095 50.4321 51.5013C50.2843 51.6932 50.0764 51.8281 49.843 51.8838L50.7612 52.9694H49.5118ZM49.0451 51.2262C49.3461 51.2262 49.557 51.1344 49.557 50.8592C49.557 50.584 49.3461 50.4922 49.0451 50.4922H48.0065V51.2262H49.0451Z" fill="#7A7F86"/>
<path d="M55.6387 51.8226C55.6387 52.5413 55.0064 53.0001 53.8021 53.0001C53.0519 53.0235 52.3138 52.8039 51.6946 52.3731L52.2516 51.7157C52.6964 52.0209 53.2201 52.1857 53.7569 52.1896C54.2236 52.1896 54.4495 52.1895 54.4495 51.9449C54.4495 51.7002 54.2689 51.7309 53.6667 51.6697C52.6581 51.578 51.7699 51.3485 51.7699 50.5992C51.7699 49.85 52.5527 49.4677 53.6064 49.4677C54.2494 49.4554 54.8837 49.6192 55.443 49.9418L54.901 50.6145C54.5107 50.3774 54.0609 50.2606 53.6064 50.2782C53.2753 50.2782 52.899 50.2782 52.899 50.4923C52.899 50.7064 53.185 50.6911 53.7119 50.737C54.856 50.8287 55.6387 51.0428 55.6387 51.8226Z" fill="#7A7F86"/>
</g>
<defs>
<clipPath id="clip0_381_30801">
<rect width="56" height="53" fill="white"/>
</clipPath>
</defs>
</svg>
